999
dxfrw 0.5.10
0
SECTION
2
HEADER
9
$ACADVER
1
AC1021
9
$HANDSEED
5
20000
9
$DWGCODEPAGE
3
ANSI_1252
9
$INSBASE
10
0
20
0
30
0
9
$EXTMIN
10
17.0412841799
20
17.9000244143
30
0
9
$EXTMAX
10
204.826848808
20
147.13989258
30
0
9
$LIMMIN
10
0
20
0
9
$LIMMAX
10
420
20
297
9
$ORTHOMODE
70
0
9
$LTSCALE
40
1
9
$TEXTSTYLE
7
STANDARD
9
$DIMASZ
40
5
9
$DIMLFAC
40
1
9
$DIMSCALE
40
1
9
$DIMEXO
40
0.025
9
$DIMEXE
40
1
9
$DIMTXT
40
4
9
$DIMTSZ
40
0
9
$DIMAUNIT
70
0
9
$DIMADEC
70
2
9
$DIMLUNIT
70
4
9
$DIMSTYLE
2
STANDARD
9
$DIMGAP
40
0.025
9
$DIMTIH
70
0
9
$LUNITS
70
4
9
$LUPREC
70
4
9
$AUNITS
70
0
9
$AUPREC
70
2
9
$SPLINESEGS
70
8
9
$GRIDMODE
70
1
9
$SNAPSTYLE
70
0
9
$GRIDUNIT
10
0
20
0
9
$PINSBASE
10
-5.51314406317
20
-0.733469031015
30
0
9
$PLIMMIN
10
0
20
0
9
$PLIMMAX
10
11.6929133858
20
16.5354330709
9
$INSUNITS
70
1
9
$PSVPSCALE
40
0.100083421944
0
ENDSEC
0
SECTION
2
CLASSES
0
ENDSEC
0
SECTION
2
TABLES
0
TABLE
2
VPORT
5
8
330
0
100
AcDbSymbolTable
70
1
0
VPORT
5
31
330
2
100
AcDbSymbolTableRecord
100
AcDbViewportTableRecord
2
*ACTIVE
70
0
10
0
20
0
11
1
21
1
12
149.408569337
22
75.1904296883
13
0
23
0
14
10
24
10
15
10
25
10
16
0
26
0
36
1
17
0
27
0
37
0
40
145.195312502
41
2.43303571429
42
50
43
0
44
0
50
0
51
0
71
0
72
100
73
1
74
3
75
0
76
1
77
0
78
2
281
0
65
1
110
0
120
0
130
0
111
1
121
0
131
0
112
0
122
1
132
0
79
0
146
0
348
10020
60
7
61
5
292
1
282
1
141
0
142
0
63
250
421
3358443
0
ENDTAB
0
TABLE
2
LTYPE
5
5
330
0
100
AcDbSymbolTable
70
4
0
LTYPE
5
14
330
5
100
AcDbSymbolTableRecord
100
AcDbLinetypeTableRecord
2
ByBlock
70
0
3

72
65
73
0
40
0
0
LTYPE
5
15
330
5
100
AcDbSymbolTableRecord
100
AcDbLinetypeTableRecord
2
ByLayer
70
0
3

72
65
73
0
40
0
0
LTYPE
5
16
330
5
100
AcDbSymbolTableRecord
100
AcDbLinetypeTableRecord
2
Continuous
70
0
3
Solid line
72
65
73
0
40
0
0
LTYPE
5
32
330
5
100
AcDbSymbolTableRecord
100
AcDbLinetypeTableRecord
2
DOT
70
0
3
Dot . . . . . . . . . . . . . . . . . . . . . .
72
65
73
2
40
6.35
49
0
74
0
49
-6.35
74
0
0
LTYPE
5
33
330
5
100
AcDbSymbolTableRecord
100
AcDbLinetypeTableRecord
2
DOT2
70
0
3
Dot (.5x) .....................................
72
65
73
2
40
3.175
49
0
74
0
49
-3.175
74
0
0
LTYPE
5
34
330
5
100
AcDbSymbolTableRecord
100
AcDbLinetypeTableRecord
2
DOTX2
70
0
3
Dot (2x) .  .  .  .  .  .  .  .  .  .  .  .  .
72
65
73
2
40
12.7
49
0
74
0
49
-12.7
74
0
0
LTYPE
5
35
330
5
100
AcDbSymbolTableRecord
100
AcDbLinetypeTableRecord
2
DASHED
70
0
3
Dot . . . . . . . . . . . . . . . . . . . . . .
72
65
73
2
40
19.05
49
12.7
74
0
49
-6.35
74
0
0
LTYPE
5
36
330
5
100
AcDbSymbolTableRecord
100
AcDbLinetypeTableRecord
2
DASHED2
70
0
3
Dashed (.5x) _ _ _ _ _ _ _ _ _ _ _ _ _ _ _ _ _
72
65
73
2
40
9.525
49
6.35
74
0
49
-3.175
74
0
0
LTYPE
5
37
330
5
100
AcDbSymbolTableRecord
100
AcDbLinetypeTableRecord
2
DASHEDX2
70
0
3
Dashed (2x) ____  ____  ____  ____  ____  ___
72
65
73
2
40
38.1
49
25.4
74
0
49
-12.7
74
0
0
LTYPE
5
38
330
5
100
AcDbSymbolTableRecord
100
AcDbLinetypeTableRecord
2
DASHDOT
70
0
3
Dash dot __ . __ . __ . __ . __ . __ . __ . __
72
65
73
4
40
25.4
49
12.7
74
0
49
-6.35
74
0
49
0
74
0
49
-6.35
74
0
0
LTYPE
5
39
330
5
100
AcDbSymbolTableRecord
100
AcDbLinetypeTableRecord
2
DASHDOT2
70
0
3
Dash dot (.5x) _._._._._._._._._._._._._._._.
72
65
73
4
40
12.7
49
6.35
74
0
49
-3.175
74
0
49
0
74
0
49
-3.175
74
0
0
LTYPE
5
3A
330
5
100
AcDbSymbolTableRecord
100
AcDbLinetypeTableRecord
2
DASHDOTX2
70
0
3
Dash dot (2x) ____  .  ____  .  ____  .  ___
72
65
73
4
40
50.8
49
25.4
74
0
49
-12.7
74
0
49
0
74
0
49
-12.7
74
0
0
LTYPE
5
3B
330
5
100
AcDbSymbolTableRecord
100
AcDbLinetypeTableRecord
2
DIVIDE
70
0
3
Divide ____ . . ____ . . ____ . . ____ . . ____
72
65
73
6
40
31.75
49
12.7
74
0
49
-6.35
74
0
49
0
74
0
49
-6.35
74
0
49
0
74
0
49
-6.35
74
0
0
LTYPE
5
3C
330
5
100
AcDbSymbolTableRecord
100
AcDbLinetypeTableRecord
2
DIVIDE2
70
0
3
Divide (.5x) __..__..__..__..__..__..__..__.._
72
65
73
6
40
15.875
49
6.35
74
0
49
-3.175
74
0
49
0
74
0
49
-3.175
74
0
49
0
74
0
49
-3.175
74
0
0
LTYPE
5
3D
330
5
100
AcDbSymbolTableRecord
100
AcDbLinetypeTableRecord
2
DIVIDEX2
70
0
3
Divide (2x) ________  .  .  ________  .  .  _
72
65
73
6
40
63.5
49
25.4
74
0
49
-12.7
74
0
49
0
74
0
49
-12.7
74
0
49
0
74
0
49
-12.7
74
0
0
LTYPE
5
3E
330
5
100
AcDbSymbolTableRecord
100
AcDbLinetypeTableRecord
2
BORDER
70
0
3
Border __ __ . __ __ . __ __ . __ __ . __ __ .
72
65
73
6
40
44.45
49
12.7
74
0
49
-6.35
74
0
49
12.7
74
0
49
-6.35
74
0
49
0
74
0
49
-6.35
74
0
0
LTYPE
5
3F
330
5
100
AcDbSymbolTableRecord
100
AcDbLinetypeTableRecord
2
BORDER2
70
0
3
Border (.5x) __.__.__.__.__.__.__.__.__.__.__.
72
65
73
6
40
22.225
49
6.35
74
0
49
-3.175
74
0
49
6.35
74
0
49
-3.175
74
0
49
0
74
0
49
-3.175
74
0
0
LTYPE
5
40
330
5
100
AcDbSymbolTableRecord
100
AcDbLinetypeTableRecord
2
BORDERX2
70
0
3
Border (2x) ____  ____  .  ____  ____  .  ___
72
65
73
6
40
88.9
49
25.4
74
0
49
-12.7
74
0
49
25.4
74
0
49
-12.7
74
0
49
0
74
0
49
-12.7
74
0
0
LTYPE
5
41
330
5
100
AcDbSymbolTableRecord
100
AcDbLinetypeTableRecord
2
CENTER
70
0
3
Center ____ _ ____ _ ____ _ ____ _ ____ _ ____
72
65
73
4
40
50.8
49
31.75
74
0
49
-6.35
74
0
49
6.35
74
0
49
-6.35
74
0
0
LTYPE
5
42
330
5
100
AcDbSymbolTableRecord
100
AcDbLinetypeTableRecord
2
CENTER2
70
0
3
Center (.5x) ___ _ ___ _ ___ _ ___ _ ___ _ ___
72
65
73
4
40
28.575
49
19.05
74
0
49
-3.175
74
0
49
3.175
74
0
49
-3.175
74
0
0
LTYPE
5
43
330
5
100
AcDbSymbolTableRecord
100
AcDbLinetypeTableRecord
2
CENTERX2
70
0
3
Center (2x) ________  __  ________  __  _____
72
65
73
4
40
101.6
49
63.5
74
0
49
-12.7
74
0
49
12.7
74
0
49
-12.7
74
0
0
ENDTAB
0
TABLE
2
LAYER
5
2
330
0
100
AcDbSymbolTable
70
1
0
LAYER
5
10
330
2
100
AcDbSymbolTableRecord
100
AcDbLayerTableRecord
2
0
70
4
62
7
6
CONTINUOUS
370
0
390
F
0
LAYER
5
44
330
2
100
AcDbSymbolTableRecord
100
AcDbLayerTableRecord
2
House
70
4
62
255
6
CONTINUOUS
370
0
390
F
0
LAYER
5
45
330
2
100
AcDbSymbolTableRecord
100
AcDbLayerTableRecord
2
Road
70
4
62
1
6
CONTINUOUS
370
0
390
F
0
LAYER
5
46
330
2
100
AcDbSymbolTableRecord
100
AcDbLayerTableRecord
2
Lawn
70
4
62
6
6
CONTINUOUS
370
0
390
F
0
LAYER
5
47
330
2
100
AcDbSymbolTableRecord
100
AcDbLayerTableRecord
2
Plants
70
4
62
3
6
CONTINUOUS
370
0
390
F
0
LAYER
5
48
330
2
100
AcDbSymbolTableRecord
100
AcDbLayerTableRecord
2
Pond
70
4
62
4
6
CONTINUOUS
370
0
390
F
0
LAYER
5
49
330
2
100
AcDbSymbolTableRecord
100
AcDbLayerTableRecord
2
Lot
70
4
62
5
6
DASHED
370
0
390
F
0
LAYER
5
4A
330
2
100
AcDbSymbolTableRecord
100
AcDbLayerTableRecord
2
Fense
70
0
62
2
6
CONTINUOUS
370
211
390
F
0
LAYER
5
4B
330
2
100
AcDbSymbolTableRecord
100
AcDbLayerTableRecord
2
Dimension
70
0
62
230
420
16718205
6
CONTINUOUS
370
211
390
F
0
ENDTAB
0
TABLE
2
STYLE
5
3
330
0
100
AcDbSymbolTable
70
3
0
STYLE
5
4C
330
2
100
AcDbSymbolTableRecord
100
AcDbTextStyleTableRecord
2
italicc
70
0
40
0
41
1
50
0
71
0
42
1
3
italicc
4

0
STYLE
5
4D
330
2
100
AcDbSymbolTableRecord
100
AcDbTextStyleTableRecord
2
Standard
70
0
40
0
41
1
50
0
71
0
42
1
3
txt
4

0
ENDTAB
0
TABLE
2
VIEW
5
6
330
0
100
AcDbSymbolTable
70
0
0
ENDTAB
0
TABLE
2
UCS
5
7
330
0
100
AcDbSymbolTable
70
0
0
ENDTAB
0
TABLE
2
APPID
5
9
330
0
100
AcDbSymbolTable
70
1
0
APPID
5
12
330
9
100
AcDbSymbolTableRecord
100
AcDbRegAppTableRecord
2
ACAD
70
0
0
ENDTAB
0
TABLE
2
DIMSTYLE
5
A
330
0
100
AcDbSymbolTable
70
1
100
AcDbDimStyleTable
71
1
0
DIMSTYLE
105
4E
330
A
100
AcDbSymbolTableRecord
100
AcDbDimStyleTableRecord
2
Standard
70
0
40
1
41
5
42
0.025
43
0.38
44
1
45
0
46
0
47
0
48
0
140
4
141
0.09
142
0
143
25.4
144
1
145
0
146
1
147
0.025
148
0
71
0
72
0
73
0
74
1
75
0
76
0
77
0
78
0
79
0
170
0
171
2
172
0
173
0
174
0
175
0
176
0
177
0
178
0
179
0
271
4
272
4
273
2
274
2
275
0
276
0
277
2
278
46
279
0
280
0
281
0
282
0
283
1
284
0
285
0
286
0
288
0
289
3
340
Standard
341

371
-2
372
-2
0
ENDTAB
0
TABLE
2
BLOCK_RECORD
5
1
330
0
100
AcDbSymbolTable
70
2
0
BLOCK_RECORD
5
1F
330
1
100
AcDbSymbolTableRecord
100
AcDbBlockTableRecord
2
*Model_Space
70
0
280
1
281
0
0
BLOCK_RECORD
5
1E
330
1
100
AcDbSymbolTableRecord
100
AcDbBlockTableRecord
2
*Paper_Space
70
0
280
1
281
0
0
BLOCK_RECORD
5
4F
330
1
100
AcDbSymbolTableRecord
100
AcDbBlockTableRecord
2
tree
70
0
280
1
281
0
0
ENDTAB
0
ENDSEC
0
SECTION
2
BLOCKS
0
BLOCK
5
20
330
1F
100
AcDbEntity
8
0
100
AcDbBlockBegin
2
*Model_Space
70
0
10
0
20
0
30
0
3
*Model_Space
1

0
ENDBLK
5
21
330
1F
100
AcDbEntity
8
0
100
AcDbBlockEnd
0
BLOCK
5
1C
330
1B
100
AcDbEntity
8
0
100
AcDbBlockBegin
2
*Paper_Space
70
0
10
0
20
0
30
0
3
*Paper_Space
1

0
ENDBLK
5
1D
330
1F
100
AcDbEntity
8
0
100
AcDbBlockEnd
0
BLOCK
5
50
330
4F
100
AcDbEntity
8
0
100
AcDbBlockBegin
2
tree
70
0
10
0
20
0
3
tree
1

0
CIRCLE
5
52
100
AcDbEntity
8
Plants
6
ByLayer
62
256
370
-1
100
AcDbCircle
10
65.3257369998
20
48.6145019534
40
35.3937754973
0
LINE
5
53
100
AcDbEntity
8
Plants
6
ByLayer
62
256
370
-1
100
AcDbLine
10
64.8193359378
20
48.6145019534
11
111.914634705
21
20.7624435426
0
LINE
5
54
100
AcDbEntity
8
Plants
6
ByLayer
62
256
370
-1
100
AcDbLine
10
64.8193359378
20
48.6145019534
11
118.799385906
21
57.5508619005
0
LINE
5
55
100
AcDbEntity
8
Plants
6
ByLayer
62
256
370
-1
100
AcDbLine
10
64.8193359378
20
48.6145019534
11
100.426271806
21
90.1578581226
0
LINE
5
56
100
AcDbEntity
8
Plants
6
ByLayer
62
256
370
-1
100
AcDbLine
10
64.8193359378
20
48.6145019534
11
65.3922766856
21
103.32625629
0
LINE
5
57
100
AcDbEntity
8
Plants
6
ByLayer
62
256
370
-1
100
AcDbLine
10
64.8193359378
20
48.6145019534
11
30.090196222
21
90.8944165501
0
LINE
5
58
100
AcDbEntity
8
Plants
6
ByLayer
62
256
370
-1
100
AcDbLine
10
64.8193359378
20
48.6145019534
11
11.0382662029
21
58.6793348813
0
LINE
5
59
100
AcDbEntity
8
Plants
6
ByLayer
62
256
370
-1
100
AcDbLine
10
64.8193359378
20
48.6145019534
11
17.1510964227
21
21.7548060274
0
LINE
5
5A
100
AcDbEntity
8
Plants
6
ByLayer
62
256
370
-1
100
AcDbLine
10
64.8193359378
20
48.6145019534
11
45.5684256852
21
-2.60177259043
0
LINE
5
5B
100
AcDbEntity
8
Plants
6
ByLayer
62
256
370
-1
100
AcDbLine
10
64.8193359378
20
48.6145019534
11
82.9934698048
21
-2.99368714376
0
LINE
5
5C
100
AcDbEntity
8
Plants
6
ByLayer
62
256
370
-1
100
AcDbLine
10
64.8193359378
20
48.6145019534
11
111.914634705
21
20.7624435426
0
LINE
5
5D
100
AcDbEntity
8
Plants
6
ByLayer
62
256
370
-1
100
AcDbLine
10
64.8193359378
20
48.6145019534
11
118.799385906
21
57.5508619005
0
ENDBLK
5
51
330
4F
100
AcDbEntity
8
0
100
AcDbBlockEnd
0
ENDSEC
0
SECTION
2
ENTITIES
0
LINE
5
5E
100
AcDbEntity
8
Lot
6
ByLayer
62
256
370
-1
100
AcDbLine
10
40
20
40
11
156
21
40
0
LINE
5
5F
100
AcDbEntity
8
Lot
6
ByLayer
62
256
370
-1
100
AcDbLine
10
156
20
40
11
156
21
120
0
LINE
5
60
100
AcDbEntity
8
Lot
6
ByLayer
62
256
370
-1
100
AcDbLine
10
156
20
120
11
80
21
120
0
LINE
5
61
100
AcDbEntity
8
Lot
6
ByLayer
62
256
370
-1
100
AcDbLine
10
80
20
120
11
40.005290202
21
89.9929476927
0
LINE
5
62
100
AcDbEntity
8
Lot
6
ByLayer
62
256
370
-1
100
AcDbLine
10
40.005290202
20
89.9929476927
11
40
21
40
0
LWPOLYLINE
5
63
100
AcDbEntity
8
House
6
ByLayer
62
256
370
-1
100
AcDbPolyline
90
7
70
0
43
0
10
136
20
50
10
136
20
80
10
139
20
80
10
139
20
100
10
111
20
100
10
111
20
50
10
136
20
50
0
SPLINE
5
64
100
AcDbEntity
8
Lawn
6
ByLayer
62
256
370
-1
100
AcDbSpline
210
0
220
0
230
1
70
8
71
3
72
16
73
12
74
0
42
1e-07
43
1e-07
40
0
40
0
40
0
40
0
40
0.111111111111
40
0.222222222222
40
0.333333333333
40
0.444444444444
40
0.555555555556
40
0.666666666667
40
0.777777777778
40
0.888888888889
40
1
40
1
40
1
40
1
10
60.002645101
20
104.996473846
30
0
10
66.0346984864
20
98.8494873049
30
0
10
66.4398193361
20
93.9880371095
30
0
10
68.8705444337
20
83.8600158693
30
0
10
68.8705444337
20
81.024169922
30
0
10
72.5166320802
20
75.7575988771
30
0
10
78.5934448244
20
67.2500610353
30
0
10
79.8088073732
20
61.1732482911
30
0
10
81.024169922
20
56.7169189454
30
0
10
85.4804992677
20
50.2349853517
30
0
10
90.7470703127
20
48.6145019532
30
0
10
98
20
40
30
0
0
LWPOLYLINE
5
65
100
AcDbEntity
8
Lawn
6
ByLayer
62
256
370
-1
100
AcDbPolyline
90
5
70
0
43
0
10
60.002645101
20
104.996473846
10
80
20
120
10
156
20
120
10
156
20
40
10
98
20
40
0
LWPOLYLINE
5
66
100
AcDbEntity
8
Road
6
ByLayer
62
256
370
-1
100
AcDbPolyline
90
4
70
0
43
0
10
139
20
100
10
157
20
100
42
0.414213562373
10
167
20
110
10
167
20
140
0
LWPOLYLINE
5
67
100
AcDbEntity
8
Road
6
ByLayer
62
256
370
-1
100
AcDbPolyline
90
4
70
0
43
0
10
139
20
79.8736572269
10
157
20
79.8736572269
42
-0.414213562373
10
167
20
69.8736572269
10
167
20
39.8736572269
0
POINT
5
68
100
AcDbEntity
8
Road
6
ByLayer
62
256
370
-1
100
AcDbPoint
10
166.605949402
20
109.889030457
0
INSERT
5
69
100
AcDbEntity
8
Plants
6
ByLayer
62
256
370
-1
100
AcDbBlockReference
2
tree
10
46.5888977053
20
48.6145019534
30
0
41
0.05
42
0.05
43
0
50
0
70
1
71
1
44
30
45
30
0
INSERT
5
6A
100
AcDbEntity
8
Plants
6
ByLayer
62
256
370
-1
100
AcDbBlockReference
2
tree
10
47.0952987673
20
70.38974762
30
0
41
0.05
42
0.05
43
0
50
0
70
1
71
1
44
30
45
30
0
INSERT
5
6B
100
AcDbEntity
8
Plants
6
ByLayer
62
256
370
-1
100
AcDbBlockReference
2
tree
10
52.1593093875
20
85.5817794804
30
0
41
0.05
42
0.05
43
0
50
0
70
1
71
1
44
30
45
30
0
INSERT
5
6C
100
AcDbEntity
8
Plants
6
ByLayer
62
256
370
-1
100
AcDbBlockReference
2
tree
10
54.6913146975
20
61.2745285037
30
0
41
0.05
42
0.05
43
0
50
0
70
1
71
1
44
30
45
30
0
INSERT
5
6D
100
AcDbEntity
8
Plants
6
ByLayer
62
256
370
-1
100
AcDbBlockReference
2
tree
10
70.896148682
20
53.1721115115
30
0
41
0.05
42
0.05
43
0
50
0
70
1
71
1
44
30
45
30
0
INSERT
5
6E
100
AcDbEntity
8
Plants
6
ByLayer
62
256
370
-1
100
AcDbBlockReference
2
tree
10
59.2489242557
20
78.9985656742
30
0
41
0.01
42
0.01
43
0
50
0
70
1
71
1
44
30
45
30
0
INSERT
5
6F
100
AcDbEntity
8
Plants
6
ByLayer
62
256
370
-1
100
AcDbBlockReference
2
tree
10
46.0824966433
20
82.0369720463
30
0
41
0.03
42
0.03
43
0
50
0
70
1
71
1
44
30
45
30
0
INSERT
5
70
100
AcDbEntity
8
Plants
6
ByLayer
62
256
370
-1
100
AcDbBlockReference
2
tree
10
59.7553253177
20
98.2418060308
30
0
41
0.03
42
0.03
43
0
50
0
70
1
71
1
44
30
45
30
0
INSERT
5
71
100
AcDbEntity
8
Plants
6
ByLayer
62
256
370
-1
100
AcDbBlockReference
2
tree
10
58.0992786828
20
88.4593225754
30
0
41
0.03
42
0.03
43
0
50
0
70
1
71
1
44
30
45
30
0
ELLIPSE
5
72
100
AcDbEntity
8
Pond
6
DASHEDX2
62
256
370
-1
100
AcDbEllipse
10
68.1899414066
20
70.0048828129
30
0
11
-3.11132812502
21
4.92626953127
31
0
40
0.439603960396
41
0
42
6.28318530718
0
ELLIPSE
5
73
100
AcDbEntity
8
Pond
6
DASHEDX2
62
256
370
-1
100
AcDbEllipse
10
68.0862304691
20
70.0567382816
30
0
11
-3.73359375002
21
5.91152343753
31
0
40
0.439603960396
41
0
42
6.28318530718
0
LWPOLYLINE
5
74
100
AcDbEntity
8
Fense
6
ByLayer
62
256
370
-1
100
AcDbPolyline
90
7
70
0
43
0
10
125
20
100
10
125
20
120
10
80
20
120
10
40.005290202
20
89.9929476927
10
40
20
40
10
124.971679689
20
40
10
124.971679689
20
50
0
MTEXT
5
75
100
AcDbEntity
8
Dimension
6
ByLayer
62
256
370
-1
100
AcDbMText
10
66.6342773444
20
75.1904296883
30
0
40
2
41
9.90476444444
71
1
72
1
1
POND
7
italicc
210
0
220
0
230
1
50
300
73
2
44
1
0
MTEXT
5
76
100
AcDbEntity
8
Dimension
6
ByLayer
62
256
370
-1
100
AcDbMText
10
112.785644532
20
88.1542968759
30
0
40
4
41
24.9524
71
1
72
1
1
HOUSE
7
italicc
210
0
220
0
230
1
50
0
73
2
44
1
0
DIMENSION
5
77
100
AcDbEntity
8
Dimension
6
ByLayer
62
256
370
-1
100
AcDbDimension
10
156
20
127.369995119
30
0
11
118
21
129.394995119
31
0
70
32
71
5
3
Standard
53
0
210
0
220
0
230
1
100
AcDbAlignedDimension
13
80
23
120
33
0
14
156
24
120
34
0
100
AcDbRotatedDimension
0
DIMENSION
5
78
100
AcDbEntity
8
Dimension
6
ByLayer
62
256
370
-1
100
AcDbDimension
10
156
20
30.4650878909
30
0
11
98
21
32.4900878909
31
0
70
32
71
5
3
Standard
53
0
210
0
220
0
230
1
100
AcDbAlignedDimension
13
40
23
40
33
0
14
156
24
40
34
0
100
AcDbRotatedDimension
0
DIMENSION
5
79
100
AcDbEntity
8
Dimension
6
ByLayer
62
256
370
-1
100
AcDbDimension
10
30.7891845706
20
40
30
0
11
28.7641845706
21
64.9964738463
31
0
70
32
71
5
3
Standard
53
0
210
0
220
0
230
1
100
AcDbAlignedDimension
13
40.005290202
23
89.9929476927
33
0
14
40
24
40
34
0
50
90
100
AcDbRotatedDimension
0
DIMENSION
5
7A
100
AcDbEntity
8
Dimension
6
ByLayer
62
256
370
-1
100
AcDbDimension
10
161.400146486
20
79.8736572269
30
0
11
159.375146486
21
59.9368286134
31
0
70
32
71
5
3
Standard
53
0
210
0
220
0
230
1
100
AcDbAlignedDimension
13
156
23
40
33
0
14
156
24
79.8736572269
34
0
50
90
100
AcDbRotatedDimension
0
DIMENSION
5
7B
100
AcDbEntity
8
Dimension
6
ByLayer
62
256
370
-1
100
AcDbDimension
10
163.344726564
20
120
30
0
11
161.319726564
21
110
31
0
70
32
71
5
3
Standard
53
0
210
0
220
0
230
1
100
AcDbAlignedDimension
13
156
23
100
33
0
14
156
24
120
34
0
50
90
100
AcDbRotatedDimension
0
DIMENSION
5
7C
100
AcDbEntity
8
Dimension
6
ByLayer
62
256
370
-1
100
AcDbDimension
10
74.2226360707
20
127.700322957
30
0
11
53.0099955533
21
114.31658255
31
0
70
33
71
5
3
Standard
53
0
210
0
220
0
230
1
100
AcDbAlignedDimension
13
40.005290202
23
89.9929476927
33
0
14
80
24
120
34
0
0
DIMENSION
5
7D
100
AcDbEntity
8
Dimension
6
ByLayer
62
256
370
-1
100
AcDbDimension
10
40.005290202
20
127.694091798
30
0
11
60.002645101
21
129.719091798
31
0
70
32
71
5
3
Standard
53
0
210
0
220
0
230
1
100
AcDbAlignedDimension
13
80
23
120
33
0
14
40.005290202
24
89.9929476927
34
0
100
AcDbRotatedDimension
0
DIMENSION
5
7E
100
AcDbEntity
8
Dimension
6
ByLayer
62
256
370
-1
100
AcDbDimension
10
21.0662841799
20
127.369995119
30
0
11
19.0412841799
21
83.6849975593
31
0
70
32
71
5
3
Standard
53
0
210
0
220
0
230
1
100
AcDbAlignedDimension
13
40
23
40
33
0
14
39.863891602
24
127.369995119
34
0
50
90
100
AcDbRotatedDimension
0
LEADER
5
7F
100
AcDbEntity
8
Dimension
6
ByLayer
62
256
370
-1
100
AcDbLeader
3
Standard
71
1
72
0
73
3
74
0
75
0
40
1
41
10
76
3
76
3
10
164.561364965
20
76.4177965795
30
0
10
178.901367189
20
69.0325927742
30
0
10
187.976074221
20
69.0325927742
30
0
0
MTEXT
5
80
100
AcDbEntity
8
Dimension
6
ByLayer
62
256
370
-1
100
AcDbMText
10
191.541137697
20
70.3289794929
30
0
40
4
41
13.2857111111
71
1
72
1
1
R 3'
7
italicc
210
0
220
0
230
1
50
0
73
2
44
1
0
MTEXT
5
81
100
AcDbEntity
8
Dimension
6
ByLayer
62
256
370
-1
100
AcDbMText
10
48.8673189896
20
48.4844133239
30
0
40
4
41
39.0000044444
71
1
72
1
1
Birch Tree
7
italicc
210
0
220
0
230
1
50
0
73
2
44
1
0
DIMENSION
5
82
100
AcDbEntity
8
Dimension
6
ByLayer
62
256
370
-1
100
AcDbDimension
10
198.99536133
20
79.8736572269
30
0
11
196.97036133
21
89.9368286134
31
0
70
32
71
5
3
Standard
53
0
210
0
220
0
230
1
100
AcDbAlignedDimension
13
156
23
100
33
0
14
156
24
79.8736572269
34
0
50
90
100
AcDbRotatedDimension
0
MTEXT
5
83
100
AcDbEntity
8
Dimension
6
ByLayer
62
256
370
-1
100
AcDbMText
10
173.067626955
20
147.13989258
30
0
40
3
41
41.6785766667
71
1
72
1
1
Donlyn Avenue
7
italicc
210
0
220
0
230
1
50
270
73
2
44
1
0
MTEXT
5
84
100
AcDbEntity
8
Dimension
6
ByLayer
62
256
370
-1
100
AcDbMText
10
45.049438477
20
86.8579101572
30
0
40
2.5
41
39.1071416667
71
1
72
1
1
Wester Red Ceder
7
italicc
210
0
220
0
230
1
50
270
73
2
44
1
0
MTEXT
5
85
100
AcDbEntity
8
Dimension
6
ByLayer
62
256
370
-1
100
AcDbMText
10
89.126586915
20
26.9000244143
30
0
40
3
41
59.07143
71
1
72
1
1
14486 Donlyn Avenue\PAbbotsford BC
7
italicc
210
0
220
0
230
1
50
0
73
2
44
1
0
ENDSEC
0
SECTION
2
OBJECTS
0
DICTIONARY
5
C
330
0
100
AcDbDictionary
281
1
3
ACAD_GROUP
350
D
0
DICTIONARY
5
D
330
C
100
AcDbDictionary
281
1
0
ENDSEC
0
EOF
